<?xml version="1.0" encoding="utf-8" ?><svg xmlns="http://www.w3.org/2000/svg" xmlns:xlink="http://www.w3.org/1999/xlink" width="2688" height="1536" viewBox="0 0 2688 1536"><path fill="#0E86EA" d="M742.357 687.34C724.264 710.977 713.988 775.987 707.916 806.367C694.237 874.813 666.615 931.903 609.994 974.754C552.471 1017.9 480.108 1036.3 408.962 1025.88C334.71 1015.54 267.611 976.116 222.433 916.29C175.365 853.803 157.45 778.22 168.385 701.022C179.844 624.082 221.349 554.828 283.797 508.446C346.81 461.07 420.661 445.427 498.205 456.358C572.568 466.841 634.31 506.834 678.949 566.672C665.72 575.708 648.372 584.981 634.309 594.109C609.554 610.178 591.573 624.356 569.184 642.94C538.781 603.838 490.191 578.353 440.134 581.292C401.001 583.641 364.375 601.338 338.216 630.538C309.803 662.292 295.278 704.095 297.881 746.626C304.084 840.203 376.102 907.067 471.956 893.311C507.754 888.174 541.082 868.193 564.727 840.988C541.637 828.782 514.027 816.597 490.072 804.871C485.207 808.835 477.891 816.758 473.208 821.366C461.683 832.707 450.368 844.323 438.056 854.85C431.895 831.856 427.106 795.958 422.517 771.561C404.762 761.517 386.722 751.984 368.42 742.975C357.657 737.583 341.846 730.305 332.048 723.981C380.123 716.035 436.819 709.608 485.399 703.304L737.837 669.691L739.052 671.276C734.995 673.716 699.551 685.154 692.03 687.81C654.471 701.222 616.989 714.848 579.586 728.688L440.351 778.481C452.798 784.393 465.014 791.894 477.831 798.032C488.257 791.551 516.994 778.778 528.957 773.161L629.052 726.048C643.979 719.1 740.869 672.103 751.959 671.212C752.558 673.318 745.519 680.386 742.835 686.269L742.357 687.34Z"/><path fill="#0E86EA" d="M1401.61 1032.41C1399.58 992.711 1401.05 942.291 1401.01 901.979L1400.97 824.873C1401.08 801.419 1399.91 773.786 1405.99 751.404C1425.8 678.499 1483.47 622.542 1560.92 618.379C1612.29 615.618 1647.39 627.482 1685.95 660.761C1692.97 654.934 1699.04 648.89 1706.45 643.567C1764.04 602.174 1852.96 612.464 1902.67 661.843C1922.98 682.333 1941.38 714.198 1947.37 742.694C1955.79 782.751 1952.95 829.591 1953.01 870.654L1953.48 1032.78C1906.84 1034.73 1856.66 1025.3 1836.37 977.844C1823.28 947.211 1825.11 922.3 1825.38 890.099L1825.93 820.063C1826.05 802.285 1826.94 781.661 1818.41 765.49C1804.91 739.897 1753.65 739.87 1746.12 770.665C1741.12 786.608 1742.34 807.323 1742.43 824.27L1742.64 890.949C1742.66 902.884 1743.1 920.585 1741.81 932.06C1740.46 951.754 1737.87 962.706 1728.22 980.447C1704.33 1024.39 1661.83 1031.89 1616.5 1033.02C1615.36 1016.65 1616.11 990.719 1616.1 973.562L1616.36 856.985C1616.49 819.654 1626.69 747.019 1571.47 747.147C1559.62 747.116 1548.25 751.829 1539.9 760.233C1520.51 780.027 1528.16 820.787 1527.22 848.437C1525.49 899.692 1537.53 965.114 1497.5 1005.55C1470.95 1032.36 1435.86 1032.6 1401.61 1032.41Z"/><path fill="#0E86EA" d="M1163.77 616.507C1167.55 616.41 1171.33 616.368 1175.11 616.381C1227.35 616.201 1277.52 636.796 1314.57 673.63C1381.44 741.39 1372.78 804.855 1372.67 892.322L1372.54 1032.13C1346.79 1033.31 1320.98 1033.09 1297.78 1019.42C1240.57 985.714 1251.17 905.693 1248.29 849.247C1247.97 832.979 1248.07 817.41 1244.31 801.472C1234.93 761.608 1192.25 737.77 1153.12 749.552C1128.12 757.081 1113.99 770.123 1101.14 792.666C1097.43 801.748 1095.07 810.057 1094.56 819.914C1093.66 840.556 1101.15 860.685 1115.32 875.716C1141.86 904.395 1178.22 899.367 1214.06 900.517C1212.62 941.887 1214.58 987.441 1214.45 1029.35C1151.36 1040.74 1092.63 1024.68 1042.66 983.746C917.428 881.147 959.818 676.427 1111.7 626.261C1129.71 620.313 1144.63 618.17 1163.77 616.507Z"/><path fill="#06C6B1" d="M2149.68 621.435C2247.8 617.485 2287.28 659.352 2319.08 745.954C2324.88 761.728 2333.33 777.924 2339.02 794.337C2358.34 746.844 2387.75 678.176 2429.55 647.639C2466.22 620.851 2527.45 616.847 2571.26 624.376C2567.64 633.331 2556.66 653.164 2551.76 662.838L2511.82 742.464L2441.25 882.791C2428.18 909.037 2415.55 936.624 2401.94 962.46C2400.13 967.87 2380.19 1006.52 2376.38 1013.73C2363.48 1038.13 2349.5 1071.38 2335.16 1093.99C2328.75 1103.95 2321.24 1113.15 2312.75 1121.42C2269.79 1163.47 2221.25 1159.1 2165.91 1158.42C2187.38 1113.19 2212.54 1065.84 2234.94 1020.75L2258.8 972.027C2263.11 963.198 2268.84 950.469 2274.12 942.547C2239.45 872.866 2204.31 803.416 2168.72 734.201C2151.44 700.542 2130.75 655.913 2111.5 624.931C2124.33 623.32 2136.8 622.414 2149.68 621.435Z"/><path fill="#06C6B1" d="M1979.04 445.976C2026.09 442.295 2077.07 461.905 2098.21 506.508C2102.82 516.346 2105.9 526.828 2107.34 537.593C2111.39 568.027 2109.45 606.902 2109.29 637.855L2109.07 783.541C2108.76 811.126 2105.09 847.976 2121.99 870.42C2140.35 894.814 2163.96 896.623 2191.73 900.684C2191.13 943.474 2191.77 987.124 2191.43 1030.13L2191.14 1030.81C2189.05 1032.39 2188.33 1032.46 2185.5 1032.39C2134.35 1031.32 2079.28 1013.22 2041.97 977.455C2010.61 947.39 1987.88 901.473 1983.29 858.241C1978.95 817.445 1980.55 772.091 1979.87 730.87C1978.32 636.013 1981.22 540.814 1979.04 445.976Z"/><path fill="#0E86EA" d="M729.009 828.416C730.366 802.313 733.183 778.914 741.537 753.999C774.863 654.62 874.08 609.252 973.987 623.193L975.177 750.228C940.226 749.334 905.467 746.077 877.497 772.632C855.894 793.143 856.273 814.089 855.084 841.087C852.894 890.796 865.888 966.463 827.284 1003.93C797.542 1032.8 764.328 1030.53 728.938 1033.26C725.901 1024.96 728.356 846.212 729.009 828.416Z"/><path fill="#666969" fill-opacity="0.027450981" d="M737.837 669.691C741.67 665.898 747.862 665.355 752.8 667.303C757.921 673.359 747.04 683.122 742.357 687.34L742.835 686.269C745.519 680.386 752.558 673.318 751.959 671.212C740.869 672.103 643.979 719.1 629.052 726.048C622.504 725.999 596.84 728.128 593.082 733.327L595.99 734.855C588.309 737.76 589.06 734.947 582.025 733.055L579.007 734.953L578.225 734.461L579.586 728.688C616.989 714.848 654.471 701.222 692.03 687.81C699.551 685.154 734.995 673.716 739.052 671.276L737.837 669.691Z"/><path fill="#FCFCFC" fill-opacity="0.011764706" d="M728.938 1033.26C726.123 1033.4 727.395 1033.75 725.023 1032.08C723.893 1027.52 724.521 1014.54 724.382 1008.95C723.815 982.169 723.594 955.382 723.721 928.595C723.684 898.303 722.819 865.725 725.693 835.569C725.995 832.399 726.994 830.821 729.009 828.416C728.356 846.212 725.901 1024.96 728.938 1033.26Z"/><path fill="#FCFCFC" fill-opacity="0.011764706" d="M1741.81 932.06C1743.1 920.585 1742.66 902.884 1742.64 890.949L1742.43 824.27C1742.34 807.323 1741.12 786.608 1746.12 770.665C1747.45 794.632 1745.92 820.254 1746.34 844.447C1746.79 870.291 1746.87 896.894 1745.61 922.682C1745.43 926.415 1743.96 929.183 1741.81 932.06Z"/></svg>